<svg xmlns="http://www.w3.org/2000/svg" viewBox="0 0 179.7 62.02"><defs><style>.cls-1{font-size:46.35px;fill:#fff;font-family:HelveticaNeue-Bold, Helvetica Neue;font-weight:700;}.cls-2{fill:#4dbbff;}.cls-2,.cls-3,.cls-4{fill-rule:evenodd;}.cls-3{fill:#ffcb48;}.cls-4{fill:#fc38b6;}</style></defs><g id="Layer_2" data-name="Layer 2"><g id="Layer_1-2" data-name="Layer 1"><text class="cls-1" transform="translate(35.55 39.72)">kartric</text><path class="cls-2" d="M29.46,29c-.93-5.33-6.36-14-9.65-21.79V40.68a10,10,0,0,0,7.81-3.54A9.66,9.66,0,0,0,29.46,29"/><path class="cls-3" d="M9.56,6.27c3.22,8.05,9.07,17.2,10,22.75a9.66,9.66,0,0,1-1.84,8.11A9.58,9.58,0,0,1,4.22,38.47,10.52,10.52,0,0,1,.85,28.8c.83-5.69,5.82-12.54,8.71-22.53"/><path class="cls-4" d="M9.64,29C8.72,23.7,3.29,15.05,0,7.24V40.68a10,10,0,0,0,7.81-3.54A9.69,9.69,0,0,0,9.64,29"/></g></g></svg>