<svg xmlns="http://www.w3.org/2000/svg" viewBox="0 0 29.66 34.41"><defs><style>.cls-1{fill:#fff;fill-rule:evenodd;}</style></defs><g id="Layer_2" data-name="Layer 2"><g id="Layer_1-2" data-name="Layer 1"><path class="cls-1" d="M29.46,22.76c-.93-5.33-6.36-14-9.65-21.79V34.41a10,10,0,0,0,7.81-3.54,9.66,9.66,0,0,0,1.84-8.11"/><path class="cls-1" d="M9.56,0c3.22,8.05,9.07,17.2,10,22.75a9.66,9.66,0,0,1-1.84,8.11A9.58,9.58,0,0,1,4.22,32.2,10.52,10.52,0,0,1,.85,22.53C1.68,16.85,6.67,10,9.56,0"/><path class="cls-1" d="M9.64,22.76C8.72,17.43,3.29,8.78,0,1V34.41a10,10,0,0,0,7.81-3.54,9.69,9.69,0,0,0,1.83-8.11"/></g></g></svg>